<svg width="26" height="26" viewBox="0 0 26 26" fill="none" xmlns="http://www.w3.org/2000/svg">
<path d="M22.6114 0.221436H2.94593C1.31894 0.221436 0 1.54038 0 3.16737V22.8328C0 24.4598 1.31894 25.7788 2.94593 25.7788H22.6114C24.2384 25.7788 25.5573 24.4598 25.5573 22.8328V3.16737C25.5573 1.54038 24.2384 0.221436 22.6114 0.221436Z" fill="#00C1A2"/>
<path fill-rule="evenodd" clip-rule="evenodd" d="M6.95327 10.3223C6.38725 10.6501 5.66278 10.4573 5.33551 9.89125C5.0077 9.32523 5.20056 8.60076 5.76658 8.2735L12.1802 4.57032C12.5649 4.3474 13.0227 4.36543 13.3795 4.57742L19.6964 8.22433C19.703 8.22815 19.7095 8.23143 19.7161 8.23471C20.1062 8.42921 20.3739 8.83187 20.3739 9.29736V11.6385C20.3739 12.104 20.1056 12.5066 19.7155 12.7011C19.709 12.7044 19.7024 12.7083 19.6959 12.7115L17.5405 13.9561C17.1373 14.19 16.6532 14.1588 16.2899 13.9168L11.0017 10.8638C10.7204 10.7009 10.7204 10.295 11.0017 10.1322L12.5206 9.2553C12.6512 9.1799 12.8124 9.1799 12.9429 9.2553L16.7335 11.444C16.8641 11.5194 17.0253 11.5194 17.1559 11.444L17.7891 11.0785C17.9197 11.0031 18 10.8638 18 10.713V10.2234C18 10.0726 17.9197 9.93332 17.7891 9.85792L12.9845 7.08409C12.8539 7.00869 12.6927 7.00869 12.5621 7.08409L6.95327 10.3223Z" fill="white"/>
<path fill-rule="evenodd" clip-rule="evenodd" d="M18.5925 15.6774C19.1585 15.3496 19.883 15.5425 20.2103 16.1085C20.5381 16.6745 20.3452 17.399 19.7792 17.7262L13.3655 21.4289C12.9809 21.6518 12.5231 21.6337 12.1663 21.4218L5.84935 17.7749C5.84279 17.771 5.83624 17.7678 5.82969 17.7645C5.43959 17.57 5.17188 17.1673 5.17188 16.7018V14.3607C5.17188 13.8952 5.44014 13.4925 5.83023 13.298C5.83679 13.2948 5.84334 13.2909 5.84989 13.2877L8.00526 12.0431C8.40846 11.8092 8.89254 11.8404 9.25587 12.0824L14.544 15.1354C14.8254 15.2982 14.8254 15.7042 14.544 15.867L13.0252 16.7439C12.8946 16.8193 12.7334 16.8193 12.6028 16.7439L8.81222 14.5552C8.68164 14.4798 8.52047 14.4798 8.38989 14.5552L7.75668 14.9207C7.6261 14.9961 7.54523 15.1354 7.54523 15.2862V15.7757C7.54523 15.9265 7.62555 16.0659 7.75668 16.1413L12.5613 18.9151C12.6919 18.9905 12.8531 18.9905 12.9836 18.9151L18.5925 15.6769V15.6774Z" fill="white"/>
</svg>