<svg width="130" height="26" viewBox="0 0 130 26" fill="none" xmlns="http://www.w3.org/2000/svg">
<g id="Group 1000002545">
<g id="Group 1000002526">
<path id="Vector" d="M22.6114 0.221436H2.94593C1.31894 0.221436 0 1.54038 0 3.16737V22.8328C0 24.4598 1.31894 25.7788 2.94593 25.7788H22.6114C24.2384 25.7788 25.5573 24.4598 25.5573 22.8328V3.16737C25.5573 1.54038 24.2384 0.221436 22.6114 0.221436Z" fill="#00C1A2"/>
<g id="Group">
<path id="Vector_2" fill-rule="evenodd" clip-rule="evenodd" d="M6.95327 10.3223C6.38725 10.6501 5.66278 10.4573 5.33551 9.89125C5.0077 9.32523 5.20056 8.60076 5.76658 8.2735L12.1802 4.57032C12.5649 4.3474 13.0227 4.36543 13.3795 4.57742L19.6964 8.22433C19.703 8.22815 19.7095 8.23143 19.7161 8.23471C20.1062 8.42921 20.3739 8.83187 20.3739 9.29736V11.6385C20.3739 12.104 20.1056 12.5066 19.7155 12.7011C19.709 12.7044 19.7024 12.7083 19.6959 12.7115L17.5405 13.9561C17.1373 14.19 16.6532 14.1588 16.2899 13.9168L11.0017 10.8638C10.7204 10.7009 10.7204 10.295 11.0017 10.1322L12.5206 9.2553C12.6512 9.1799 12.8124 9.1799 12.9429 9.2553L16.7335 11.444C16.8641 11.5194 17.0253 11.5194 17.1559 11.444L17.7891 11.0785C17.9197 11.0031 18 10.8638 18 10.713V10.2234C18 10.0726 17.9197 9.93332 17.7891 9.85792L12.9845 7.08409C12.8539 7.00869 12.6927 7.00869 12.5621 7.08409L6.95327 10.3223Z" fill="white"/>
<path id="Vector_3" fill-rule="evenodd" clip-rule="evenodd" d="M18.5925 15.6774C19.1585 15.3496 19.883 15.5425 20.2103 16.1085C20.5381 16.6745 20.3452 17.399 19.7792 17.7262L13.3655 21.4289C12.9809 21.6518 12.5231 21.6337 12.1663 21.4218L5.84935 17.7749C5.84279 17.771 5.83624 17.7678 5.82969 17.7645C5.43959 17.57 5.17188 17.1673 5.17188 16.7018V14.3607C5.17188 13.8952 5.44014 13.4925 5.83023 13.298C5.83679 13.2948 5.84334 13.2909 5.84989 13.2877L8.00526 12.0431C8.40846 11.8092 8.89254 11.8404 9.25587 12.0824L14.544 15.1354C14.8254 15.2982 14.8254 15.7042 14.544 15.867L13.0252 16.7439C12.8946 16.8193 12.7334 16.8193 12.6028 16.7439L8.81222 14.5552C8.68164 14.4798 8.52047 14.4798 8.38989 14.5552L7.75668 14.9207C7.6261 14.9961 7.54523 15.1354 7.54523 15.2862V15.7757C7.54523 15.9265 7.62555 16.0659 7.75668 16.1413L12.5613 18.9151C12.6919 18.9905 12.8531 18.9905 12.9836 18.9151L18.5925 15.6769V15.6774Z" fill="white"/>
</g>
</g>
<g id="StoreCake">
<path d="M38.4044 18.7028C37.5056 18.7028 36.693 18.5496 35.9666 18.2433C35.2525 17.9369 34.6861 17.4957 34.2675 16.9197C33.8489 16.3438 33.6334 15.6636 33.6211 14.8793H36.3914C36.4283 15.4063 36.613 15.8229 36.9454 16.1293C37.2902 16.4357 37.758 16.5889 38.349 16.5889C38.9523 16.5889 39.4264 16.4479 39.7711 16.1661C40.1159 15.8719 40.2882 15.492 40.2882 15.0264C40.2882 14.6465 40.1713 14.334 39.9373 14.0889C39.7034 13.8438 39.4079 13.6538 39.0508 13.519C38.7061 13.3719 38.2259 13.2126 37.6103 13.0411C36.7731 12.796 36.0897 12.557 35.5603 12.3241C35.0432 12.079 34.5938 11.7175 34.2121 11.2396C33.8427 10.7494 33.658 10.0999 33.658 9.29105C33.658 8.53125 33.8489 7.86948 34.2306 7.30575C34.6122 6.74203 35.1478 6.31311 35.8373 6.01899C36.5268 5.71261 37.3148 5.55943 38.2013 5.55943C39.531 5.55943 40.6084 5.88418 41.4333 6.53369C42.2705 7.17095 42.7322 8.06556 42.8184 9.21752H39.9743C39.9496 8.77635 39.7588 8.41482 39.4017 8.13296C39.057 7.83884 38.5953 7.69178 38.0166 7.69178C37.5118 7.69178 37.1055 7.82046 36.7977 8.07781C36.5022 8.33517 36.3544 8.70894 36.3544 9.19914C36.3544 9.54228 36.4652 9.83027 36.6869 10.0631C36.9208 10.2837 37.204 10.4675 37.5364 10.6146C37.8812 10.7494 38.3613 10.9087 38.977 11.0925C39.8142 11.3376 40.4975 11.5827 41.027 11.8278C41.5564 12.0729 42.012 12.4406 42.3936 12.9308C42.7753 13.421 42.9662 14.0643 42.9662 14.8609C42.9662 15.5472 42.7876 16.1844 42.4306 16.7727C42.0735 17.3609 41.5502 17.8327 40.8608 18.1881C40.1713 18.5313 39.3525 18.7028 38.4044 18.7028Z" fill="#1C2536"/>
<path d="M48.2182 10.5043V15.4308C48.2182 15.7739 48.2982 16.0251 48.4582 16.1844C48.6306 16.3315 48.9138 16.405 49.3078 16.405H50.5082V18.5742H48.883C46.7037 18.5742 45.6141 17.5202 45.6141 15.4124V10.5043H44.3952V8.39031H45.6141V5.87193H48.2182V8.39031H50.5082V10.5043H48.2182Z" fill="#1C2536"/>
<path d="M56.9112 18.7396C55.9262 18.7396 55.0397 18.5251 54.2517 18.0962C53.4637 17.655 52.842 17.0362 52.3864 16.2396C51.9432 15.443 51.7215 14.5239 51.7215 13.4822C51.7215 12.4406 51.9493 11.5214 52.4049 10.7249C52.8727 9.92831 53.5068 9.31556 54.3071 8.88664C55.1074 8.44546 56.0001 8.22487 56.9851 8.22487C57.9701 8.22487 58.8627 8.44546 59.663 8.88664C60.4633 9.31556 61.0912 9.92831 61.5468 10.7249C62.0147 11.5214 62.2486 12.4406 62.2486 13.4822C62.2486 14.5239 62.0085 15.443 61.5283 16.2396C61.0605 17.0362 60.4202 17.655 59.6076 18.0962C58.8073 18.5251 57.9085 18.7396 56.9112 18.7396ZM56.9112 16.4969C57.3791 16.4969 57.8162 16.3867 58.2225 16.1661C58.6411 15.9332 58.9735 15.5901 59.2198 15.1367C59.466 14.6832 59.5891 14.1317 59.5891 13.4822C59.5891 12.5141 59.3306 11.7727 58.8135 11.258C58.3086 10.731 57.6869 10.4675 56.9481 10.4675C56.2094 10.4675 55.5876 10.731 55.0828 11.258C54.5903 11.7727 54.3441 12.5141 54.3441 13.4822C54.3441 14.4504 54.5842 15.1979 55.0643 15.7249C55.5568 16.2396 56.1725 16.4969 56.9112 16.4969Z" fill="#1C2536"/>
<path d="M66.7308 9.9712C67.0633 9.43198 67.4942 9.00919 68.0236 8.70282C68.5654 8.39644 69.181 8.24326 69.8705 8.24326V10.9455H69.1871C68.3745 10.9455 67.7589 11.1354 67.3403 11.5153C66.934 11.8952 66.7308 12.557 66.7308 13.5006V18.5742H64.1452V8.39031H66.7308V9.9712Z" fill="#1C2536"/>
<path d="M81.1233 13.2616C81.1233 13.6293 81.0987 13.9602 81.0494 14.2543H73.5697C73.6312 14.9896 73.8898 15.5656 74.3453 15.9822C74.8009 16.3989 75.3611 16.6072 76.026 16.6072C76.9863 16.6072 77.6697 16.1967 78.076 15.3756H80.8647C80.5692 16.356 80.0029 17.1648 79.1656 17.8021C78.3284 18.4271 77.3003 18.7396 76.0814 18.7396C75.0964 18.7396 74.2099 18.5251 73.4219 18.0962C72.6462 17.655 72.0368 17.0362 71.5935 16.2396C71.1626 15.443 70.9471 14.5239 70.9471 13.4822C70.9471 12.4283 71.1626 11.5031 71.5935 10.7065C72.0245 9.90992 72.6278 9.29718 73.4034 8.86826C74.1791 8.43933 75.0718 8.22487 76.0814 8.22487C77.0541 8.22487 77.9221 8.43321 78.6854 8.84987C79.4611 9.26654 80.0583 9.86091 80.4769 10.633C80.9078 11.3928 81.1233 12.269 81.1233 13.2616ZM78.4453 12.5264C78.433 11.8646 78.1929 11.3376 77.7251 10.9455C77.2572 10.5411 76.6847 10.3388 76.0075 10.3388C75.3673 10.3388 74.8255 10.5349 74.3823 10.9271C73.9513 11.307 73.6866 11.8401 73.5881 12.5264H78.4453Z" fill="#1C2536"/>
<path d="M82.3826 12.1403C82.3826 10.8781 82.6658 9.75061 83.2322 8.75796C83.8108 7.75306 84.5927 6.97487 85.5777 6.4234C86.575 5.85967 87.6892 5.57781 88.9205 5.57781C90.361 5.57781 91.623 5.94546 92.7065 6.68075C93.79 7.41605 94.5472 8.43321 94.9781 9.73223H92.0047C91.7092 9.11948 91.2906 8.65992 90.7488 8.35355C90.2194 8.04718 89.6038 7.89399 88.902 7.89399C88.1509 7.89399 87.4799 8.07169 86.8889 8.42708C86.3102 8.77022 85.8547 9.26041 85.5223 9.89767C85.2021 10.5349 85.0421 11.2825 85.0421 12.1403C85.0421 12.9859 85.2021 13.7335 85.5223 14.383C85.8547 15.0202 86.3102 15.5166 86.8889 15.8719C87.4799 16.2151 88.1509 16.3867 88.902 16.3867C89.6038 16.3867 90.2194 16.2335 90.7488 15.9271C91.2906 15.6085 91.7092 15.1428 92.0047 14.53H94.9781C94.5472 15.8413 93.79 16.8646 92.7065 17.5999C91.6353 18.3229 90.3733 18.6845 88.9205 18.6845C87.6892 18.6845 86.575 18.4087 85.5777 17.8572C84.5927 17.2935 83.8108 16.5153 83.2322 15.5227C82.6658 14.53 82.3826 13.4026 82.3826 12.1403Z" fill="#1C2536"/>
<path d="M96.5217 13.4455C96.5217 12.4161 96.7248 11.5031 97.1312 10.7065C97.5498 9.90992 98.11 9.29718 98.8118 8.86826C99.5259 8.43933 100.32 8.22487 101.194 8.22487C101.958 8.22487 102.622 8.37806 103.189 8.68443C103.768 8.99081 104.229 9.37684 104.574 9.84252V8.39031H107.178V18.5742H104.574V17.0852C104.242 17.5631 103.78 17.9614 103.189 18.28C102.61 18.5864 101.939 18.7396 101.176 18.7396C100.314 18.7396 99.5259 18.519 98.8118 18.0778C98.11 17.6367 97.5498 17.0178 97.1312 16.2212C96.7248 15.4124 96.5217 14.4871 96.5217 13.4455ZM104.574 13.4822C104.574 12.8572 104.451 12.3241 104.205 11.883C103.958 11.4295 103.626 11.0864 103.207 10.8536C102.789 10.6085 102.339 10.4859 101.859 10.4859C101.379 10.4859 100.936 10.6023 100.529 10.8352C100.123 11.068 99.7906 11.4112 99.5321 11.8646C99.2858 12.3058 99.1627 12.8327 99.1627 13.4455C99.1627 14.0582 99.2858 14.5974 99.5321 15.0631C99.7906 15.5166 100.123 15.8658 100.529 16.1109C100.948 16.356 101.391 16.4786 101.859 16.4786C102.339 16.4786 102.789 16.3621 103.207 16.1293C103.626 15.8842 103.958 15.5411 104.205 15.0999C104.451 14.6465 104.574 14.1072 104.574 13.4822Z" fill="#1C2536"/>
<path d="M115.761 18.5742L112.289 14.2359V18.5742H109.703V4.97119H112.289V12.7102L115.724 8.39031H119.085L114.579 13.5006L119.122 18.5742H115.761Z" fill="#1C2536"/>
<path d="M130 13.2616C130 13.6293 129.975 13.9602 129.926 14.2543H122.446C122.508 14.9896 122.766 15.5656 123.222 15.9822C123.678 16.3989 124.238 16.6072 124.903 16.6072C125.863 16.6072 126.546 16.1967 126.953 15.3756H129.741C129.446 16.356 128.88 17.1648 128.042 17.8021C127.205 18.4271 126.177 18.7396 124.958 18.7396C123.973 18.7396 123.087 18.5251 122.299 18.0962C121.523 17.655 120.913 17.0362 120.47 16.2396C120.039 15.443 119.824 14.5239 119.824 13.4822C119.824 12.4283 120.039 11.5031 120.47 10.7065C120.901 9.90992 121.504 9.29718 122.28 8.86826C123.056 8.43933 123.948 8.22487 124.958 8.22487C125.931 8.22487 126.799 8.43321 127.562 8.84987C128.338 9.26654 128.935 9.86091 129.354 10.633C129.784 11.3928 130 12.269 130 13.2616ZM127.322 12.5264C127.31 11.8646 127.07 11.3376 126.602 10.9455C126.134 10.5411 125.561 10.3388 124.884 10.3388C124.244 10.3388 123.702 10.5349 123.259 10.9271C122.828 11.307 122.563 11.8401 122.465 12.5264H127.322Z" fill="#1C2536"/>
</g>
</g>
</svg>
