<svg width="16" height="16" viewBox="0 0 16 16" fill="none" xmlns="http://www.w3.org/2000/svg">
<g id="CaretDown">
<path id="Vector" d="M13.3541 6.35375L8.35414 11.3538C8.30771 11.4002 8.25256 11.4371 8.19186 11.4623C8.13117 11.4874 8.0661 11.5004 8.00039 11.5004C7.93469 11.5004 7.86962 11.4874 7.80892 11.4623C7.74822 11.4371 7.69308 11.4002 7.64664 11.3538L2.64664 6.35375C2.57664 6.28382 2.52895 6.1947 2.50963 6.09765C2.4903 6.00061 2.50021 5.90002 2.53808 5.8086C2.57596 5.71719 2.64011 5.63908 2.7224 5.58414C2.8047 5.5292 2.90145 5.49992 3.00039 5.5H13.0004C13.0993 5.49992 13.1961 5.5292 13.2784 5.58414C13.3607 5.63908 13.4248 5.71719 13.4627 5.8086C13.5006 5.90002 13.5105 6.00061 13.4912 6.09765C13.4718 6.1947 13.4241 6.28382 13.3541 6.35375Z" fill="#A5A8AA"/>
</g>
</svg>
