<svg width="118" height="108" viewBox="0 0 118 108" fill="none" xmlns="http://www.w3.org/2000/svg">
<path d="M29.7802 99.7763H87.2805C88.8609 99.7802 90.3844 99.183 91.5455 98.1044C96.3894 93.5927 100.264 88.1317 102.933 82.0573C105.601 75.983 107.005 69.4237 107.06 62.783C107.308 35.7808 85.4896 13.5629 58.6481 13.4992C31.7914 13.4354 10 35.3188 10 62.3226C9.99236 69.0436 11.368 75.6934 14.0403 81.8533C16.7125 88.0132 20.6236 93.5497 25.5272 98.1144C26.6859 99.1879 28.2049 99.7815 29.7802 99.7763Z" fill="url(#paint0_linear_294_27777)"/>
<path d="M71.87 13.9234H67.9768C67.175 13.9163 66.3917 13.6817 65.718 13.2468C65.0443 12.812 64.5079 12.1947 64.1713 11.467C63.707 10.4928 62.9762 9.67013 62.0636 9.09423C61.151 8.51834 60.0939 8.2128 59.0148 8.21301H58.0474V8.29626C57.1399 8.45269 56.2835 8.826 55.5511 9.38445C54.8188 9.94289 54.2322 10.6699 53.8411 11.5038C53.5052 12.2254 52.9705 12.8364 52.2997 13.2649C51.6289 13.6935 50.8499 13.9219 50.0539 13.9234H46.1596C45.8855 13.9234 45.6142 13.9774 45.361 14.0822C45.1078 14.1871 44.8777 14.3408 44.684 14.5346C44.4902 14.7284 44.3365 14.9584 44.2316 15.2116C44.1267 15.4648 44.0728 15.7362 44.0728 16.0102V19.3828C44.0728 19.9363 44.2926 20.4671 44.684 20.8584C45.0753 21.2498 45.6061 21.4696 46.1596 21.4696H71.8699C72.4234 21.4696 72.9542 21.2498 73.3456 20.8584C73.7369 20.4671 73.9568 19.9363 73.9568 19.3828V16.0102C73.9568 15.4568 73.7369 14.926 73.3456 14.5346C72.9542 14.1433 72.4234 13.9234 71.87 13.9234Z" fill="#417A93"/>
<path d="M71.87 13.9234H67.9768C67.175 13.9163 66.3917 13.6817 65.718 13.2468C65.0443 12.812 64.5079 12.1947 64.1713 11.467C63.707 10.4928 62.9762 9.67013 62.0636 9.09423C61.151 8.51834 60.0939 8.2128 59.0148 8.21301H58.0474V8.29626C57.1399 8.45269 56.2835 8.826 55.5511 9.38445C54.8188 9.94289 54.2322 10.6699 53.8411 11.5038C53.5052 12.2254 52.9705 12.8364 52.2997 13.2649C51.6289 13.6935 50.8499 13.9219 50.0539 13.9234H46.1596C45.8855 13.9234 45.6142 13.9774 45.361 14.0822C45.1078 14.1871 44.8777 14.3408 44.684 14.5346C44.4902 14.7284 44.3365 14.9584 44.2316 15.2116C44.1267 15.4648 44.0728 15.7362 44.0728 16.0102V19.3828C44.0728 19.9363 44.2926 20.4671 44.684 20.8584C45.0753 21.2498 45.6061 21.4696 46.1596 21.4696H71.8699C72.4234 21.4696 72.9542 21.2498 73.3456 20.8584C73.7369 20.4671 73.9568 19.9363 73.9568 19.3828V16.0102C73.9568 15.4567 73.7369 14.926 73.3456 14.5346C72.9542 14.1433 72.4234 13.9234 71.87 13.9234Z" fill="#A5B0BE"/>
<path d="M86.1085 17.896H32.4971C30.8974 17.896 29.6006 19.1928 29.6006 20.7925V96.8905C29.6006 98.4902 30.8974 99.787 32.4971 99.787H86.1085C87.7082 99.787 89.005 98.4902 89.005 96.8905V20.7925C89.005 19.1928 87.7082 17.896 86.1085 17.896Z" fill="#D4D9E3"/>
<path d="M84.5651 17.896H30.9536C29.3539 17.896 28.0571 19.1928 28.0571 20.7925V96.8905C28.0571 98.4902 29.3539 99.787 30.9536 99.787H84.5651C86.1648 99.787 87.4616 98.4902 87.4616 96.8905V20.7925C87.4616 19.1928 86.1648 17.896 84.5651 17.896Z" fill="#E5E9F1"/>
<path d="M82.024 21.15H33.4948C32.453 21.15 31.6084 21.9946 31.6084 23.0364V94.6139C31.6084 95.6558 32.453 96.5003 33.4948 96.5003H82.024C83.0658 96.5003 83.9104 95.6558 83.9104 94.6139V23.0364C83.9104 21.9946 83.0658 21.15 82.024 21.15Z" fill="white"/>
<path d="M41.1921 44.2803C43.9825 44.2803 46.2446 42.0182 46.2446 39.2278C46.2446 36.4374 43.9825 34.1753 41.1921 34.1753C38.4017 34.1753 36.1396 36.4374 36.1396 39.2278C36.1396 42.0182 38.4017 44.2803 41.1921 44.2803Z" fill="#CBD4E0"/>
<path d="M41.1921 58.7344C43.9825 58.7344 46.2446 56.4723 46.2446 53.6819C46.2446 50.8915 43.9825 48.6294 41.1921 48.6294C38.4017 48.6294 36.1396 50.8915 36.1396 53.6819C36.1396 56.4723 38.4017 58.7344 41.1921 58.7344Z" fill="#CBD4E0"/>
<path d="M41.1921 73.1886C43.9825 73.1886 46.2446 70.9265 46.2446 68.1361C46.2446 65.3457 43.9825 63.0836 41.1921 63.0836C38.4017 63.0836 36.1396 65.3457 36.1396 68.1361C36.1396 70.9265 38.4017 73.1886 41.1921 73.1886Z" fill="#CBD4E0"/>
<path d="M40.1826 41.7123C40.0923 41.7124 40.0028 41.6947 39.9193 41.6601C39.8358 41.6255 39.76 41.5748 39.6962 41.5108L38.2951 40.1098C38.1666 39.9807 38.0945 39.8059 38.0947 39.6237C38.0949 39.4415 38.1674 39.2669 38.2962 39.1381C38.425 39.0092 38.5997 38.9368 38.7819 38.9366C38.9641 38.9364 39.1389 39.0084 39.268 39.137L40.1826 40.0515L42.7808 37.4533C42.8447 37.3892 42.9205 37.3383 43.004 37.3035C43.0876 37.2688 43.1771 37.2508 43.2676 37.2507C43.3581 37.2506 43.4477 37.2684 43.5313 37.303C43.6149 37.3375 43.6908 37.3882 43.7548 37.4522C43.8188 37.5162 43.8695 37.5922 43.9041 37.6758C43.9386 37.7594 43.9564 37.849 43.9563 37.9394C43.9562 38.0299 43.9382 38.1195 43.9035 38.203C43.8687 38.2865 43.8178 38.3623 43.7537 38.4262L40.669 41.5108C40.6052 41.5748 40.5294 41.6255 40.4459 41.6601C40.3625 41.6947 40.273 41.7124 40.1826 41.7123Z" fill="white"/>
<path d="M78.1717 37.6804H51.2974C50.4428 37.6804 49.75 38.3732 49.75 39.2278V39.2278C49.75 40.0824 50.4428 40.7752 51.2974 40.7752H78.1717C79.0263 40.7752 79.7191 40.0824 79.7191 39.2278C79.7191 38.3732 79.0263 37.6804 78.1717 37.6804Z" fill="#E5E9F1"/>
<path d="M40.1826 56.1666C40.0923 56.1667 40.0028 56.1489 39.9193 56.1144C39.8358 56.0798 39.76 56.029 39.6962 55.9651L38.2951 54.5641C38.1666 54.435 38.0945 54.2602 38.0947 54.078C38.0949 53.8958 38.1674 53.7211 38.2962 53.5923C38.425 53.4635 38.5997 53.391 38.7819 53.3908C38.9641 53.3906 39.1389 53.4627 39.268 53.5912L40.1826 54.5058L42.7808 51.9076C42.9099 51.779 43.0848 51.707 43.267 51.7072C43.4491 51.7074 43.6238 51.7798 43.7526 51.9086C43.8814 52.0375 43.9539 52.2121 43.9541 52.3943C43.9543 52.5765 43.8822 52.7513 43.7537 52.8804L40.669 55.9651C40.6052 56.0291 40.5294 56.0798 40.4459 56.1144C40.3625 56.1489 40.273 56.1667 40.1826 56.1666Z" fill="white"/>
<path d="M78.1717 52.1345H51.2974C50.4428 52.1345 49.75 52.8273 49.75 53.6819V53.6819C49.75 54.5365 50.4428 55.2293 51.2974 55.2293H78.1717C79.0263 55.2293 79.7191 54.5365 79.7191 53.6819C79.7191 52.8273 79.0263 52.1345 78.1717 52.1345Z" fill="#E5E9F1"/>
<path d="M40.1826 70.6207C40.0923 70.6208 40.0028 70.603 39.9193 70.5685C39.8358 70.5339 39.76 70.4832 39.6962 70.4192L38.2951 69.0182C38.1666 68.8891 38.0945 68.7143 38.0947 68.5321C38.0949 68.3499 38.1674 68.1752 38.2962 68.0464C38.425 67.9176 38.5997 67.8451 38.7819 67.8449C38.9641 67.8447 39.1389 67.9168 39.268 68.0453L40.1826 68.9599L42.7808 66.3617C42.9099 66.2331 43.0848 66.1611 43.267 66.1613C43.4491 66.1615 43.6238 66.2339 43.7526 66.3627C43.8814 66.4916 43.9539 66.6662 43.9541 66.8484C43.9543 67.0306 43.8822 67.2054 43.7537 67.3345L40.669 70.4192C40.6052 70.4832 40.5294 70.5339 40.4459 70.5685C40.3625 70.603 40.273 70.6208 40.1826 70.6207Z" fill="white"/>
<path d="M78.1717 66.5886H51.2974C50.4428 66.5886 49.75 67.2814 49.75 68.136C49.75 68.9906 50.4428 69.6834 51.2974 69.6834H78.1717C79.0263 69.6834 79.7191 68.9906 79.7191 68.136C79.7191 67.2814 79.0263 66.5886 78.1717 66.5886Z" fill="#E5E9F1"/>
<path d="M41.1921 87.6427C43.9825 87.6427 46.2446 85.3806 46.2446 82.5902C46.2446 79.7998 43.9825 77.5377 41.1921 77.5377C38.4017 77.5377 36.1396 79.7998 36.1396 82.5902C36.1396 85.3806 38.4017 87.6427 41.1921 87.6427Z" fill="#E5E9F1"/>
<path d="M78.1717 81.0428H51.2974C50.4428 81.0428 49.75 81.7356 49.75 82.5902V82.5903C49.75 83.4449 50.4428 84.1377 51.2974 84.1377H78.1717C79.0263 84.1377 79.7191 83.4449 79.7191 82.5902C79.7191 81.7356 79.0263 81.0428 78.1717 81.0428Z" fill="#E5E9F1"/>
<path d="M70.9027 13.9234H67.0095C66.2077 13.9163 65.4244 13.6817 64.7507 13.2468C64.077 12.812 63.5406 12.1947 63.204 11.467C62.7396 10.4929 62.0087 9.67038 61.0962 9.09451C60.1836 8.51864 59.1266 8.21301 58.0475 8.21301C56.9684 8.21301 55.9114 8.51864 54.9988 9.09451C54.0862 9.67038 53.3554 10.4929 52.891 11.467C52.5544 12.1947 52.018 12.812 51.3443 13.2468C50.6706 13.6817 49.8873 13.9163 49.0855 13.9234H45.1923C44.9182 13.9234 44.6469 13.9774 44.3937 14.0822C44.1405 14.1871 43.9105 14.3408 43.7167 14.5346C43.5229 14.7284 43.3692 14.9584 43.2643 15.2116C43.1594 15.4648 43.1055 15.7362 43.1055 16.0102V23.9629C43.1055 24.5163 43.3253 25.0471 43.7167 25.4385C44.108 25.8298 44.6388 26.0497 45.1923 26.0497H70.9027C71.1767 26.0497 71.4481 25.9957 71.7013 25.8908C71.9544 25.7859 72.1845 25.6322 72.3783 25.4385C72.5721 25.2447 72.7258 25.0146 72.8306 24.7614C72.9355 24.5083 72.9895 24.2369 72.9895 23.9628V16.0102C72.9895 15.4568 72.7696 14.926 72.3783 14.5346C71.9869 14.1433 71.4561 13.9234 70.9027 13.9234Z" fill="#CBD4E0"/>
<path opacity="0.2" d="M69.9263 22.9664H46.8488C46.3946 22.9664 46.0264 23.3346 46.0264 23.7888V23.7888C46.0264 24.2431 46.3946 24.6113 46.8488 24.6113H69.9263C70.3805 24.6113 70.7487 24.2431 70.7487 23.7888C70.7487 23.3346 70.3805 22.9664 69.9263 22.9664Z" fill="white"/>
<defs>
<linearGradient id="paint0_linear_294_27777" x1="58.531" y1="13.499" x2="58.531" y2="99.7763" gradientUnits="userSpaceOnUse">
<stop stop-color="#FBFDFE"/>
<stop offset="1" stop-color="#F0F5FA"/>
</linearGradient>
</defs>
</svg>
