<svg width="20" height="20" viewBox="0 0 20 20" fill="none" xmlns="http://www.w3.org/2000/svg">
<path d="M10 3.33337C9.53979 3.33337 9.16671 3.70647 9.16671 4.16671V9.16671H4.16671C3.70647 9.16671 3.33337 9.53979 3.33337 10C3.33337 10.4603 3.70647 10.8334 4.16671 10.8334H9.16671V15.8334C9.16671 16.2936 9.53979 16.6667 10 16.6667C10.4603 16.6667 10.8334 16.2936 10.8334 15.8334V10.8334H15.8334C16.2936 10.8334 16.6667 10.4603 16.6667 10C16.6667 9.53979 16.2936 9.16671 15.8334 9.16671H10.8334V4.16671C10.8334 3.70647 10.4603 3.33337 10 3.33337Z" fill="currentColor"/>
</svg>