<svg width="20" height="20" viewBox="0 0 20 20" fill="none" xmlns="http://www.w3.org/2000/svg">
<path fill-rule="evenodd" clip-rule="evenodd" d="M14.1667 4.16667V3.33333C14.1667 2.89131 13.9911 2.46738 13.6785 2.15482C13.366 1.84226 12.942 1.66667 12.5 1.66667H7.5C7.05797 1.66667 6.63405 1.84226 6.32149 2.15482C6.00893 2.46738 5.83333 2.89131 5.83333 3.33333V4.16667H3.33333C3.11232 4.16667 2.90036 4.25446 2.74408 4.41074C2.5878 4.56702 2.5 4.77899 2.5 5C2.5 5.22101 2.5878 5.43297 2.74408 5.58926C2.90036 5.74554 3.11232 5.83333 3.33333 5.83333H4.16667V15C4.16667 15.663 4.43006 16.2989 4.8989 16.7678C5.36774 17.2366 6.00363 17.5 6.66667 17.5H13.3333C13.9964 17.5 14.6323 17.2366 15.1011 16.7678C15.5699 16.2989 15.8333 15.663 15.8333 15V5.83333H16.6667C16.8877 5.83333 17.0996 5.74554 17.2559 5.58926C17.4122 5.43297 17.5 5.22101 17.5 5C17.5 4.77899 17.4122 4.56702 17.2559 4.41074C17.0996 4.25446 16.8877 4.16667 16.6667 4.16667H14.1667ZM12.5 3.33333H7.5V4.16667H12.5V3.33333ZM14.1667 5.83333H5.83333V15C5.83333 15.221 5.92113 15.433 6.07741 15.5893C6.23369 15.7455 6.44565 15.8333 6.66667 15.8333H13.3333C13.5543 15.8333 13.7663 15.7455 13.9226 15.5893C14.0789 15.433 14.1667 15.221 14.1667 15V5.83333Z" fill="currentColor"></path>
<path d="M7.5 7.5H9.16667V14.1667H7.5V7.5ZM10.8333 7.5H12.5V14.1667H10.8333V7.5Z" fill="currentColor"></path>
</svg>
